<svg xmlns="http://www.w3.org/2000/svg" width="31.188" height="23.975" viewBox="0 0 31.188 23.975">
  <defs>
    <style>
      .cls-1 {
        fill: #215d6a;
      }
    </style>
  </defs>
  <g id="laptop" transform="translate(0 -59.201)">
    <g id="Group_462" data-name="Group 462" transform="translate(0 59.201)">
      <g id="Group_461" data-name="Group 461">
        <path id="Path_129" data-name="Path 129" class="cls-1" d="M31.186,80.939s0-.009,0-.014a.448.448,0,0,0-.008-.053v-.005a.443.443,0,0,0-.013-.047l0-.012q-.008-.021-.017-.04l0-.007-2.443-4.819V60.085a.885.885,0,0,0-.884-.884H3.377a.885.885,0,0,0-.884.884V75.941L.049,80.761l0,.007c-.006.013-.012.027-.017.04l0,.012a.464.464,0,0,0-.013.047v0A.45.45,0,0,0,0,80.925s0,.009,0,.014,0,.019,0,.029v1.159a1.052,1.052,0,0,0,1.05,1.05H30.137a1.052,1.052,0,0,0,1.05-1.05V80.967C31.188,80.958,31.187,80.948,31.186,80.939ZM3.406,60.115H27.781V75.594H3.406ZM3.23,76.507H27.957l2.03,4H19.95l-.5-1.827a.863.863,0,0,0-.829-.632H12.571a.863.863,0,0,0-.829.632l-.5,1.827H1.2ZM19,80.51H12.186l.426-1.545h5.964Zm11.272,1.616a.137.137,0,0,1-.137.137H1.05a.137.137,0,0,1-.137-.137v-.7h29.36Z" transform="translate(0 -59.201)"/>
      </g>
    </g>
    <g id="Group_464" data-name="Group 464" transform="translate(4.381 68.615)">
      <g id="Group_463" data-name="Group 463" transform="translate(0 0)">
        <path id="Path_130" data-name="Path 130" class="cls-1" d="M93.892,213.756a.457.457,0,0,0-.457.457v4.633h-20.6v-4.633a.457.457,0,0,0-.914,0v4.83a.717.717,0,0,0,.716.716H93.632a.717.717,0,0,0,.716-.716v-4.83A.457.457,0,0,0,93.892,213.756Z" transform="translate(-71.923 -213.756)"/>
      </g>
    </g>
    <g id="Group_466" data-name="Group 466" transform="translate(4.381 61.089)">
      <g id="Group_465" data-name="Group 465" transform="translate(0 0)">
        <path id="Path_131" data-name="Path 131" class="cls-1" d="M93.632,90.2H72.639a.717.717,0,0,0-.716.716v4.83a.457.457,0,1,0,.914,0V91.117h20.6v4.633a.457.457,0,1,0,.914,0v-4.83A.717.717,0,0,0,93.632,90.2Z" transform="translate(-71.923 -90.203)"/>
      </g>
    </g>
  </g>
</svg>
