<svg xmlns="http://www.w3.org/2000/svg" width="14.706" height="25.315" viewBox="0 0 14.706 25.315">
  <g id="smartphone-call" transform="translate(-7.334)">
    <path id="Path_127" data-name="Path 127" d="M20.33,0H9.044a1.715,1.715,0,0,0-1.71,1.71V23.6a1.715,1.715,0,0,0,1.71,1.711H20.33a1.714,1.714,0,0,0,1.71-1.71V1.71A1.715,1.715,0,0,0,20.33,0ZM12.882,1.232h3.611a.207.207,0,0,1,0,.414H12.882a.207.207,0,0,1,0-.414ZM14.687,24.46a.855.855,0,1,1,.855-.856A.855.855,0,0,1,14.687,24.46Zm6.163-2.309H8.524V2.712H20.85Z"/>
  </g>
</svg>
