<svg xmlns="http://www.w3.org/2000/svg" width="29" height="26.284" viewBox="0 0 29 26.284">
  <g id="tshirt" transform="translate(0 -19.089)">
    <g id="Group_460" data-name="Group 460" transform="translate(0 19.089)">
      <path id="Path_128" data-name="Path 128" d="M28.844,26.126l-.021-.021-5.986-5.321a.569.569,0,0,0-.188-.114l-4.33-1.548a.569.569,0,0,0-.763.506,3.081,3.081,0,0,1-6.163,0,.569.569,0,0,0-.757-.506L6.311,20.688a.569.569,0,0,0-.188.114l-5.947,5.3a.569.569,0,0,0-.021.8l.021.021,4.734,4.786V44.8a.569.569,0,0,0,.569.569H23.519a.569.569,0,0,0,.569-.569V31.716l4.734-4.786A.569.569,0,0,0,28.844,26.126Zm-4.772,3.968v-2.64a.569.569,0,1,0-1.138,0V44.206H6.027V27.454a.569.569,0,1,0-1.138,0V30.1l-3.5-3.545,5.417-4.848,3.562-1.286a4.194,4.194,0,0,0,8.234,0l3.562,1.286,5.4,4.848Z" transform="translate(0 -19.089)"/>
    </g>
  </g>
</svg>
