<?xml version="1.0" encoding="utf-8"?>
<!-- Generator: Adobe Illustrator 24.2.1, SVG Export Plug-In . SVG Version: 6.00 Build 0)  -->
<svg version="1.1" id="Outline" xmlns="http://www.w3.org/2000/svg" xmlns:xlink="http://www.w3.org/1999/xlink" x="0px" y="0px"
	 viewBox="0 0 512 512" style="enable-background:new 0 0 512 512;" xml:space="preserve">
<path d="M182.6,302.2l97.1,98.7c8.3,8.3,21.7,8.4,30.1,0.2c8.4-8.2,8.6-21.7,0.4-30.2c0,0-0.1-0.1-0.1-0.1l-97.4-98.5
	c-8.3-8.4-8.2-21.9,0.1-30.2c0,0,0.1-0.1,0.1-0.1l98.9-96.9c8.4-8.2,8.6-21.8,0.3-30.2c-8.2-8.4-21.8-8.6-30.2-0.3l-98.7,97.1
	C158.1,236.5,157.8,277,182.6,302.2z"/>
</svg>
