<svg xmlns="http://www.w3.org/2000/svg" xmlns:xlink="http://www.w3.org/1999/xlink" width="379.727" height="314.851" viewBox="0 0 379.727 314.851">
  <defs>
    <clipPath id="clip-path">
      <circle id="Ellipse_35" data-name="Ellipse 35" cx="16.241" cy="16.241" r="16.241" transform="translate(0 32.422) rotate(-86.53)" fill="#f2e9e9"/>
    </clipPath>
  </defs>
  <g id="Asset_1" data-name="Asset 1" transform="translate(0 0.01)">
    <g id="Layer_2" data-name="Layer 2" transform="translate(0 -0.01)">
      <g id="Layer_1" data-name="Layer 1">
        <path id="Path_173" data-name="Path 173" d="M398.3,7.761h0a2.323,2.323,0,0,0-1.741-.945L338.09,3.273,284.074,0a2.318,2.318,0,0,0-2.461,2.149L281.148,9.8l-.179,2.966h0l-.077,1.292-.107,1.47-3.349,55.236a2.317,2.317,0,0,0,2.18,2.43l112.49,6.816a2.313,2.313,0,0,0,2.456-2.149l3.349-55.236.087-1.46.077-1.287h0l.648-10.635a2.277,2.277,0,0,0-.424-1.486Z" transform="translate(-135.789 0.01)" fill="#ababab"/>
        <path id="Path_174" data-name="Path 174" d="M285.547,76.789l92.823-49.452L281.248,21.43l-.077,1.276-.087,1.44-3.308,54.629a2.257,2.257,0,0,0,.74,1.8L285.246,77l.322-.174Z" transform="translate(-135.956 -10.484)" fill="#fff"/>
        <path id="Path_175" data-name="Path 175" d="M379.064,33l-2.16,1.149-2.435,1.3-88.228,47-1.174.628-5.876,3.135a2.364,2.364,0,0,0,1.44.608l112.49,6.816a2.3,2.3,0,0,0,2.456-2.124l3.308-54.629.087-1.44h0l.077-1.281Z" transform="translate(-136.649 -16.147)" fill="#fff"/>
        <text id="Carte_d_identité" data-name="Carte d’identité" transform="matrix(0.998, 0.06, -0.06, 0.998, 193.715, 20.244)" fill="#013047" font-size="6" font-family="SegoeUIBlack, Segoe UI"><tspan x="0" y="0" letter-spacing="-0.01em">C</tspan><tspan y="0">a</tspan><tspan y="0" letter-spacing="0.019em">r</tspan><tspan y="0" letter-spacing="-0.01em">t</tspan><tspan y="0">e </tspan><tspan y="0" letter-spacing="0.01em">d</tspan><tspan y="0" letter-spacing="-0.04em">’</tspan><tspan y="0">identi</tspan><tspan y="0" letter-spacing="-0.01em">t</tspan><tspan y="0">é</tspan></text>
        <text id="ID:_123456789" data-name="ID: 123456789" transform="matrix(0.998, 0.06, -0.06, 0.998, 192.052, 63.007)" fill="#013047" font-size="3" font-family="SegoeUI-Bold, Segoe UI" font-weight="700"><tspan x="0" y="0">ID: 123456789</tspan></text>
        <g id="Group" transform="translate(192.388 33.857)">
          <text id="Nom:_" data-name="Nom: " transform="matrix(0.998, 0.06, -0.06, 0.998, 0.323, 2.995)" fill="#013047" font-size="3" font-family="SegoeUI-Semibold, Segoe UI" font-weight="600"><tspan x="0" y="0">Nom: </tspan></text>
          <text id="P" transform="matrix(0.998, 0.06, -0.06, 0.998, 0.082, 7.023)" fill="#013047" font-size="3" font-family="SegoeUIBlack, Segoe UI" letter-spacing="-0.02em"><tspan x="0" y="0">P</tspan></text>
          <text id="r" transform="matrix(0.998, 0.06, -0.06, 0.998, 1.812, 7.127)" fill="#013047" font-size="3" font-family="SegoeUIBlack, Segoe UI" letter-spacing="-0.009em"><tspan x="0" y="0">r</tspan></text>
          <text id="énom:" transform="matrix(0.998, 0.06, -0.06, 0.998, 2.879, 7.191)" fill="#013047" font-size="3" font-family="SegoeUIBlack, Segoe UI"><tspan x="0" y="0">énom:</tspan></text>
        </g>
        <g id="Group-2" data-name="Group" transform="translate(227.775 51.091)">
          <text id="Expedition_D" data-name="Expedition  D" transform="matrix(0.998, 0.06, -0.06, 0.998, 0.076, 1.996)" fill="#013047" font-size="2" font-family="SegoeUI-Semibold, Segoe UI" font-weight="600"><tspan x="0" y="0" xml:space="preserve">Expedition  D</tspan></text>
          <text id="a" transform="matrix(0.998, 0.06, -0.06, 0.998, 16.965, 3.01)" fill="#013047" font-size="2" font-family="SegoeUI-Semibold, Segoe UI" font-weight="600"><tspan x="0" y="0">a</tspan></text>
          <text id="t" transform="matrix(0.998, 0.06, -0.06, 0.998, 18.47, 2.098)" fill="#013047" font-size="1" font-family="SegoeUI-Semibold, Segoe UI" font-weight="600" letter-spacing="-0.008em"><tspan x="0" y="0">t</tspan></text>
          <text id="e:" transform="matrix(0.998, 0.06, -0.06, 0.998, 19.395, 3.156)" fill="#013047" font-size="2" font-family="SegoeUI-Semibold, Segoe UI" font-weight="600"><tspan x="0" y="0">e:</tspan></text>
          <text id="_00_00_00" data-name="00/00/00" transform="matrix(0.998, 0.06, -0.06, 0.998, 4.892, 5.928)" fill="#013047" font-size="2" font-family="SegoeUIBlack, Segoe UI"><tspan x="0" y="0">00/00/00</tspan></text>
        </g>
        <circle id="Ellipse_34" data-name="Ellipse 34" cx="16.241" cy="16.241" r="16.241" transform="translate(152.243 50.234) rotate(-86.53)" fill="#f2e9e9"/>
        <g id="Group_806" data-name="Group 806" transform="translate(152.243 17.813)" clip-path="url(#clip-path)">
          <g id="Group_805" data-name="Group 805" transform="translate(4.817 8.107)" opacity="0.3">
            <rect id="Rectangle_322" data-name="Rectangle 322" width="3.952" height="3.952" transform="translate(9.937 16.386) rotate(3.47)"/>
            <path id="Path_176" data-name="Path 176" d="M330.423,85.506a1.542,1.542,0,0,1-.4-.036A1.935,1.935,0,0,0,330.423,85.506Z" transform="translate(-318.589 -67.748)"/>
            <path id="Path_177" data-name="Path 177" d="M326.451,50.78h0a7.765,7.765,0,0,0-5.749,1.955s-1.532,6.4-.8,10.385a7.046,7.046,0,0,0,5.07,5.361c.133,0,.271.031.4.036h0c4,.245,7.434-2.379,7.658-5.82l.317-5.213C333.543,54.037,330.444,51.02,326.451,50.78Z" transform="translate(-313.539 -50.759)"/>
            <path id="Path_178" data-name="Path 178" d="M317.321,63.708c-.2,3.329,2.68,6.254,6.479,6.668a7.08,7.08,0,0,1-5.07-5.361c-.745-3.987.8-10.385.8-10.385a5.739,5.739,0,0,0-1.869,3.865Z" transform="translate(-312.368 -52.653)"/>
            <path id="Path_179" data-name="Path 179" d="M310.882,93.534a10.105,10.105,0,0,1,.893-.766,2.852,2.852,0,0,1,.087.827h.429a15.93,15.93,0,0,1,1.813-1.378l-.9-1.481-.9-1.486a23.255,23.255,0,0,0-4.666,4.084Z" transform="translate(-307.63 -69.598)"/>
            <path id="Path_180" data-name="Path 180" d="M314.694,97.079l.041-.669c-.153.128-.408.342-.725.628Z" transform="translate(-310.753 -73.103)"/>
            <path id="Path_181" data-name="Path 181" d="M342.153,95.31a2.835,2.835,0,0,1,.189-.817s.317.327.8.873l3.252.2a22.871,22.871,0,0,0-4.146-4.595l-1.077,1.363-1.077,1.358a17.3,17.3,0,0,1,1.639,1.593Z" transform="translate(-323.518 -70.44)"/>
            <path id="Path_182" data-name="Path 182" d="M345.4,98.895c-.286-.322-.511-.572-.648-.715l-.041.674Z" transform="translate(-325.779 -73.969)"/>
            <path id="Path_183" data-name="Path 183" d="M329.388,89.748l-4.381-.245a1.766,1.766,0,0,1-1.991,1.087,2,2,0,0,1-1.966-1.327l-4.345-.271a1.1,1.1,0,0,0-1.23,1.087l-.286,4.738,14.99.878.286-4.712a1.118,1.118,0,0,0-1.077-1.236Z" transform="translate(-311.33 -69.468)"/>
            <path id="Path_184" data-name="Path 184" d="M328.636,90.817a1.766,1.766,0,0,0,1.991-1.087l-3.957-.24A2,2,0,0,0,328.636,90.817Z" transform="translate(-316.949 -69.716)"/>
          </g>
        </g>
        <path id="Path_185" data-name="Path 185" d="M241.2,63.5l-1.869,55.236c-.225,6.484,5.157,11.932,12.029,12.166l129.6,4.4c6.852.235,12.585-4.835,12.8-11.324l1.869-55.236c.225-6.494-5.151-11.932-12.008-12.166l-129.613-4.4C247.14,51.938,241.406,57,241.2,63.5Zm17.808,62.236,2.3-67.9L375.987,61.7l-2.3,67.9Z" transform="translate(-117.138 -25.527)" fill="#215d6a"/>
        <rect id="Rectangle_323" data-name="Rectangle 323" width="67.954" height="114.756" transform="translate(141.851 100.202) rotate(-88.06)" opacity="0.2"/>
        <path id="Path_186" data-name="Path 186" d="M507.164,104.975c-1.118-3.666-2.486-7.219-3.62-10.951-1.4-4.707-2.379-9.348-4.018-13.877-1.149-3.625-2.92-7.765-3.513-11.687-2.522-.419-5.014-.878-7.464-1.435a71.4,71.4,0,0,1-7.878-2.241h0A43.942,43.942,0,0,1,469.46,59l13.489.454h.112a58.714,58.714,0,0,0,12.509.419h.7a12.764,12.764,0,0,1,8.781,3.865h0c.945,3.85,2.553,7.9,3.1,11.784h0Z" transform="translate(-229.777 -28.873)" fill="#999" opacity="0.42"/>
        <path id="Path_187" data-name="Path 187" d="M278.463,53.4a30.845,30.845,0,0,1-2.675,3.017c-.8.766-1.618,1.5-2.456,2.216a86.009,86.009,0,0,1-10.89,7.8c-1.154.715-2.323,1.4-3.508,2.088a53.945,53.945,0,0,1-16.685,6.31l.383-10.88a8.651,8.651,0,0,1,.107-1.164c9.19-1.833,19-5.157,25.967-9.7h0Z" transform="translate(-118.569 -25.975)" fill="#999" opacity="0.42"/>
        <g id="Group_807" data-name="Group 807" transform="translate(123.063 91.794)" opacity="0.42">
          <path id="Path_188" data-name="Path 188" d="M288.639,189.167h-.189a.051.051,0,0,0-.031,0,14.231,14.231,0,0,0-1.373-1.113c-6.872-4.983-16.976-4.595-27.105-3.155-6.239.888-12.488,2.155-17.992,2.8a11.053,11.053,0,0,1-.909-1.721,53.72,53.72,0,0,0,10.211-1.409c3.022-.74,5.876-1.889,8.781-2.88a33.993,33.993,0,0,1,7.561-1.823c5.105-.485,10.676,1.348,15.316,3.252A9.91,9.91,0,0,1,288.639,189.167Z" transform="translate(-241.04 -179.785)" fill="#999"/>
        </g>
        <g id="Group_808" data-name="Group 808" transform="translate(224.969 103.945)" opacity="0.42">
          <path id="Path_189" data-name="Path 189" d="M473.887,209.209l-6.612-.214h-.041c-7.658-.909-15.317-2.241-21.683-.73h0l-4.911-.168a21.659,21.659,0,0,1,3.686-2.083c2.522-1.1,5.06-2.3,7.852-2.4C459.74,203.286,467.184,205.839,473.887,209.209Z" transform="translate(-440.64 -203.585)" fill="#999"/>
        </g>
        <circle id="Ellipse_36" data-name="Ellipse 36" cx="3.936" cy="3.936" r="3.936" transform="translate(129.021 60.643)" fill="#ccc"/>
        <path id="Path_190" data-name="Path 190" d="M570.529,137.241c-13.55,4.508-31.241,13.647-43.958,25.686a74.229,74.229,0,0,0-16.787-12.044.663.663,0,0,0-.148-.072l-.322.066a18.707,18.707,0,0,0-4.748.541h0c-5.953.214-12.253-1.087-18.043-2.1a101.268,101.268,0,0,1-15.893-4.135c-9.767-3.6-25.992-10.288-36.76-8.21,2.389-7.148,6.566-10.359,11.687-11.61,5.958-1.455,13.188-.255,20.356.541a52.548,52.548,0,0,0,13.147.245.647.647,0,0,0,.24-.031,3.984,3.984,0,0,1,.439-.077c.557-.107,1.087-.23,1.6-.362h.077c18.518-4.866,13.065-25.14,11.2-40.9-.684-4.559-1.567-11.569-1.787-16a16.966,16.966,0,0,0-.189-1.807c-.541-3.666-2.073-7.449-3-11.064a19.116,19.116,0,0,1-.684-5.106,40.17,40.17,0,0,1-8.23,1.532,55.1,55.1,0,0,1-11.743-.317c-11.835-1.583-23.046-6.995-24.889-16.527a105,105,0,0,0,46.384-3.86c4.36-.98,8.062.807,11.288,4.156,3.273-.98,7.4-1.052,9.67,1.195a15.878,15.878,0,0,1,2.349,3.993c1.8.1,3.2.061,5.019,1.343a13.309,13.309,0,0,1,3.063,4.222c1.93.327,3.844.511,5.458,1.843,2.109,2.073,3.62,6.693,5.2,9.358,2.839,5.34,4.687,10.145,9.19,17.068h0a14.3,14.3,0,0,1,4.661,12.3c2.905,8.792,7.041,17.282,10.211,25.936.669,1.532,1.287,3.119,1.889,4.758,2.594,7.046,5.07,9.813,9.976,15.24v.026A42.711,42.711,0,0,0,570.529,137.241Z" transform="translate(-212.357 -15.347)" fill="#fdcfad"/>
        <path id="Path_191" data-name="Path 191" d="M30.235,359.835,0,355.321,24,194.712a10.257,10.257,0,0,1,2.517-4.472,73.376,73.376,0,0,1,7.658,2.338h.036c6.76,2.553,13.54,6.561,20.146,11.084l1.21.822c.347.24.689.475,1.021.715,11.988,7.148,15.352,20,16.884,33.119.2,1.741.373,3.5.511,5.243C55.522,258.929,39.69,285.968,32.221,311,27.651,328.334,27.677,344.191,30.235,359.835Z" transform="translate(0 -93.108)" fill="#fff"/>
        <path id="Path_192" data-name="Path 192" d="M209.306,129.488c-15.531-1.782-45.01,18.747-61.777,20.979-1.19.158-2.338.286-3.426.373h0a43.055,43.055,0,0,0-9.578-.26c-11.467.888-24.18,5.734-34.278,12.723-1.532-13.121-4.9-25.987-16.884-33.119-.337-.24-.679-.475-1.021-.715l-1.21-.822A100.4,100.4,0,0,0,60.95,117.557h-.036a49.692,49.692,0,0,0-6.275-1.981c.092-.1.179-.2.276-.3,2.961-3.216,5.774-6.443,8.353-9.353C69.727,98.084,78.146,88.874,82.2,79.373c4.835-9.808,9.915-26.671,22.27-27.866,2.854-2.553,4.62-5.984,8.827-6.484a7.819,7.819,0,0,1,5.749.475c3.9-3.155,7.628-3.947,13.484-1.731a8.608,8.608,0,0,1,3.819-2.777c3.339-1.705,7.939-.138,11.819.444,12.519.643,31.685-2.476,44.826-4.534,1.685,5.922-2.093,11.1-8.388,15.26h0c-6.5,4.309-15.669,7.5-24.292,9.277-2.277.47-4.518.837-6.668,1.1-1.225,8.71-2.379,17.813-3.3,26.3-.98,9.532-6.821,13.274-6.877,22.52.184,9.358,7.418,10.262,17.1,9.057,5.157-.638,11.007-1.874,16.848-2.747,9.491-1.409,18.967-1.848,25.451,2.777a13.047,13.047,0,0,1,1.292,1.021h.036a17.108,17.108,0,0,1,3.941,5.187,22.33,22.33,0,0,1,1.169,2.834Z" transform="translate(-26.744 -18.056)" fill="#fdcfad"/>
        <g id="Group_809" data-name="Group 809" transform="translate(308.25 31.327)" opacity="0.26">
          <path id="Path_193" data-name="Path 193" d="M640.52,151.963a37.157,37.157,0,0,0-3.992-16.43c-3.206-7.148-7.229-14.163-10.431-21.31-3.063-6.326-4.171-13.172-6.07-20.126-1.971-6.433-6.127-12.657-9.813-18.278-2.206-3.86-3.977-9.864-6.453-14.469a9.269,9.269,0,0,1,4.733,1.715c2.109,2.073,3.62,6.7,5.2,9.358,2.834,5.34,4.682,10.15,9.19,17.068h0a14.3,14.3,0,0,1,4.661,12.3c2.905,8.792,7.04,17.282,10.211,25.941.669,1.532,1.287,3.114,1.894,4.758,2.553,6.954,5,9.746,9.8,15.041.051.066.117.133.169.194v-.26h0v.3a42.718,42.718,0,0,0,4.008,4.156,131.794,131.794,0,0,0-34.993,18.257,68.359,68.359,0,0,1,7.1-7.561,103.73,103.73,0,0,1,14.78-10.65Z" transform="translate(-603.76 -61.35)" fill="#977e8b"/>
        </g>
        <g id="Group_810" data-name="Group 810" transform="translate(27.896 33.579)" opacity="0.26">
          <path id="Path_194" data-name="Path 194" d="M100.773,177.024l-.572.393c-1.532-13.116-4.9-25.982-16.884-33.114-.337-.24-.679-.475-1.021-.715s-.807-.551-1.21-.817A98.874,98.874,0,0,0,60.95,131.682h-.036A49.432,49.432,0,0,0,54.64,129.7c.092-.1.179-.2.276-.3,2.961-3.216,5.774-6.443,8.353-9.353C69.727,112.21,78.146,103,82.2,93.5c4.707-9.542,9.649-25.788,21.315-27.738-5.871,9.415-9.374,21.259-14.428,31-5.172,8.715-12.544,26.038-22.423,32.165C77.554,134.766,91.292,139.846,95.852,152c2.343,5.754,4.023,10.609,4.483,16.884C100.549,171.566,100.651,174.293,100.773,177.024Z" transform="translate(-54.64 -65.76)" fill="#977e8b"/>
        </g>
        <path id="Path_195" data-name="Path 195" d="M672.78,247.439,645.506,430.053l-45.26-6.76c13.274-25.436,21.249-53.062,20.182-82.663-.306-17.844-6.724-54.466-21.688-68.225a68.072,68.072,0,0,1,8.526-9.624c12.718-12.039,30.408-21.178,43.958-25.686,2.042-.684,3.967-1.251,5.774-1.715,5.325,3.533,10.461,8.169,15.546,11.881Z" transform="translate(-293.053 -115.202)" fill="#fff"/>
      </g>
    </g>
  </g>
</svg>
