<?xml version="1.0" encoding="utf-8"?>
<!-- Generator: Adobe Illustrator 24.2.1, SVG Export Plug-In . SVG Version: 6.00 Build 0)  -->
<svg version="1.1" id="Outline" xmlns="http://www.w3.org/2000/svg" xmlns:xlink="http://www.w3.org/1999/xlink" x="0px" y="0px"
	 viewBox="0 0 512 512" style="enable-background:new 0 0 512 512;" xml:space="preserve">
<path d="M0,490.7l0-149.3c0.1-106,86-191.9,192-192h103v-33.8c0-11.3,4.5-22.2,12.5-30.2c16.7-16.7,43.7-16.7,60.3,0l125.4,125.4
	c25,25,25,65.5,0,90.5L367.8,426.7c-8,8-18.8,12.5-30.2,12.5c-23.6,0-42.7-19.1-42.7-42.7v-33.8H170.6c-70.7,0.1-127.9,57.3-128,128
	c0,11.8-9.6,21.3-21.3,21.3S0,502.4,0,490.7z M337.7,170.7c0,11.8-9.6,21.3-21.3,21.3H192c-82.4,0.1-149.2,66.9-149.3,149.3v36.6
	c32.3-36.8,79-57.9,128-57.9h145.7c11.8,0,21.3,9.6,21.3,21.3v55.2l125.4-125.4c8.3-8.3,8.3-21.8,0-30.2L337.7,115.5V170.7z"/>
</svg>
