<?xml version="1.0" encoding="utf-8"?>
<!-- Generator: Adobe Illustrator 24.2.1, SVG Export Plug-In . SVG Version: 6.00 Build 0)  -->
<svg version="1.1" id="Calque_1" xmlns="http://www.w3.org/2000/svg" xmlns:xlink="http://www.w3.org/1999/xlink" x="0px" y="0px"
	 viewBox="0 0 512 512" style="enable-background:new 0 0 512 512;" xml:space="preserve">
<style type="text/css">
	.st0{fill:#FFFFFF;stroke:#FFFFFF;stroke-width:26;stroke-miterlimit:10;}
</style>
<path class="st0" d="M23.6,246.4C22.3,320,45.6,378.6,94.2,423c48.6,44,103,66.1,163,66.1c40.2,0,78.1-9.4,113.4-28.2
	c35.3-19.1,63.8-46.3,85.9-82.6c21.7-36,32.4-77.7,32.1-125.7c-0.6-46-11.7-86.2-33.4-120.9c-21.4-34.6-49.9-61.5-85.2-80.3
	c-35.3-19.1-72.6-28.5-111.1-28.5c-26.6,0-53.1,4.8-80,14.2c-26.9,9.7-52.2,24.3-75.5,43.8c-23.7,19.8-42.4,43.1-56.4,70.6
	C32.6,178.7,24.9,210.5,23.6,246.4L23.6,246.4L23.6,246.4z M153.5,143.1c-5.2,9.7-10.4,25.2-15.5,46.6c-5.2,21.4-8.1,40.2-8.4,56.7
	H45.3c5.2-56.4,23-100.8,53.4-132.5c3.3,3.3,7.5,6.2,13.3,9.4c5.8,3.2,12.3,6.5,19.4,9.7C138.9,136.3,146,139.5,153.5,143.1
	L153.5,143.1z M197.2,53.7c-15.6,22-28.2,45.7-38.2,71.3c-24.6-11.7-39.9-20.1-46-25.6C134.1,78,161.9,62.7,197.2,53.7L197.2,53.7z
	 M225.1,47.5c2.3-0.3,4.6-0.7,6.5-1c2.3-0.3,4.5-0.3,7.5-0.3h7.4v101.1c-7.8,0-17.8-1.3-30.5-4.2c-12.6-2.6-25.6-6.2-38.6-10.1
	C189.8,102.6,205.6,74.1,225.1,47.5C225.1,47.5,225.1,47.5,225.1,47.5z M246.5,168.7v77.8h-97.2c0-30.2,7.1-62.2,21.4-96.2
	C202.4,162.5,227.7,168.7,246.5,168.7L246.5,168.7z M246.5,266.2v78.7c-19.1,0-44.1,6.2-74.5,18.5c-4.5-8.8-9.4-24-14.9-46
	c-5.2-22.4-7.8-39.2-7.8-51.2L246.5,266.2L246.5,266.2z M129.5,266.2c0,25.3,7.5,59.9,22.7,104c-33.3,16.9-51.2,26.3-53.5,28.2
	c-16.5-17.8-29.1-39.5-38.2-64.8c-9.1-25.3-13.6-47.6-13.6-67.4L129.5,266.2L129.5,266.2z M246.5,363.4V468l-21.4-1.3
	c-18.4-25.6-34.6-54.8-47.6-86.8C186.6,375.4,209.5,369.9,246.5,363.4L246.5,363.4L246.5,363.4z M159,388c16.8,35,29.8,59,39.5,71.9
	c-28.2-8.4-56.7-24-85.5-46.7C128.6,403.2,143.8,394.8,159,388L159,388L159,388z M287.9,466.7l-21.1,1.3V364.7
	c22,1.3,45,6.5,69,15.2C316.4,422.7,300.2,451.5,287.9,466.7L287.9,466.7z M400.4,413.3c-21.7,22.7-49.6,37.9-84.3,45
	c6.8-8.4,12.6-17.5,17.8-26.6c4.9-9.1,9.4-18.5,13.3-28.5c3.9-9.7,6.2-14.9,6.5-15.2C379.6,400.7,395.2,409,400.4,413.3L400.4,413.3
	L400.4,413.3z M467.1,266.2c0,23.3-4.9,47.6-15.2,72.9s-22.4,45-36.6,59.3c-3.6-2.9-10-6.5-19.5-11.3c-9.4-4.9-21-11-34.6-18.1
	c16.5-42.4,24.6-76.5,24.6-102.7L467.1,266.2L467.1,266.2z M364.1,266.2c0,28.5-7.1,60.6-21.4,97.2c-8.1-4.5-20.1-9.1-36-13.3
	c-15.5-4.6-28.8-6.2-39.8-5.2v-78.7L364.1,266.2L364.1,266.2z M266.9,168.7c20.1,0,45.4-6.2,75.8-18.5c4.5,7.4,9.4,22,14.3,43.1
	c4.5,20.7,7.1,38.5,7.1,53.1h-97.2L266.9,168.7L266.9,168.7z M414,113.9c16.2,15.6,29.1,35.3,38.9,60c9.7,24.6,14.3,48.9,14.3,72.6
	h-82.6c0-31.1-7.8-65.4-23.3-103.3C384.8,131.7,402.6,122,414,113.9L414,113.9L414,113.9z M400.4,99.3c-5.2,4.5-20.1,13.6-45.4,26.9
	c-11.7-28.8-25.6-53.5-41.5-73.8C344.3,61.5,373.5,77,400.4,99.3C400.4,99.3,400.4,99.3,400.4,99.3z M286.6,47.5
	c19.1,23.3,35.6,51.2,49.2,84.2c-12.6,8.2-35.6,13.3-69,15.6V46.2h7.4C280.8,46.2,285,46.6,286.6,47.5L286.6,47.5z"/>
</svg>
